<?xml version="1.0" standalone="no"?><!DOCTYPE svg PUBLIC "-//W3C//DTD SVG 1.1//EN" "http://www.w3.org/Graphics/SVG/1.1/DTD/svg11.dtd"><svg class="icon" width="200px" height="200.00px" viewBox="0 0 1024 1024" version="1.1" xmlns="http://www.w3.org/2000/svg"><path d="M984.106667 661.333333L377.173333 55.253333a42.666667 42.666667 0 0 0-64 5.76L128 324.48a42.666667 42.666667 0 0 0 4.906667 54.613333l181.333333 181.333334-137.173333 135.893333H107.946667v-157.866667a21.333333 21.333333 0 0 0-21.333334-21.333333H48.64a21.333333 21.333333 0 0 0-21.333333 21.333333V960a21.333333 21.333333 0 0 0 21.333333 21.333333h37.973333a21.333333 21.333333 0 0 0 21.333334-21.333333v-178.346667h86.826666a42.666667 42.666667 0 0 0 30.08-12.373333l149.333334-149.333333 150.613333 150.613333a42.666667 42.666667 0 0 0 30.293333 12.586667h5.12L960 734.72A42.666667 42.666667 0 0 0 984.106667 661.333333z m-211.413334 9.386667l-123.733333-123.733333a21.333333 21.333333 0 0 0-30.08 0l-26.88 26.88a21.333333 21.333333 0 0 0 0 30.08l79.146667 79.146666-101.546667 12.373334-352.213333-351.36 135.466666-192L861.866667 661.333333z" fill="#ff9900" /></svg>
