<?xml version="1.0" standalone="no"?><!DOCTYPE svg PUBLIC "-//W3C//DTD SVG 1.1//EN" "http://www.w3.org/Graphics/SVG/1.1/DTD/svg11.dtd"><svg class="icon" width="200px" height="200.00px" viewBox="0 0 1024 1024" version="1.1" xmlns="http://www.w3.org/2000/svg"><path d="M294.4 580.266667c-6.4-14.933333-23.466667-23.466667-38.4-19.2-19.2 6.4-27.733333 25.6-21.333333 42.666666 44.8 110.933333 151.466667 187.733333 277.333333 187.733334s232.533333-76.8 277.333333-187.733334c6.4-17.066667-4.266667-38.4-21.333333-42.666666-14.933333-4.266667-32 4.266667-38.4 19.2-36.266667 87.466667-119.466667 147.2-217.6 147.2-96-2.133333-181.333333-61.866667-217.6-147.2z"  fill="#ff9900" /><path d="M891.733333 597.333333c-14.933333-4.266667-32 4.266667-38.4 19.2C804.266667 755.2 669.866667 853.333333 514.133333 853.333333S224 755.2 170.666667 616.533333c-4.266667-14.933333-21.333333-23.466667-38.4-19.2-17.066667 6.4-27.733333 25.6-21.333334 42.666667C170.666667 800 330.666667 917.333333 512 917.333333c183.466667 0 341.333333-117.333333 398.933333-279.466666 6.4-17.066667-4.266667-36.266667-19.2-40.533334z"  fill="#ff9900" /><path d="M512 663.466667c66.133333 0 123.733333-38.4 151.466667-93.866667 10.666667-17.066667 0-38.4-19.2-44.8-12.8-4.266667-29.866667 2.133333-36.266667 14.933333-17.066667 36.266667-53.333333 59.733333-96 59.733334s-76.8-23.466667-96-59.733334c-6.4-12.8-21.333333-19.2-36.266667-14.933333-19.2 6.4-27.733333 27.733333-19.2 44.8 29.866667 55.466667 87.466667 93.866667 151.466667 93.866667z"  fill="#ff9900" /><path d="M206.933333 204.8c-12.8 2.133333-19.2 8.533333-21.333333 21.333333 2.133333 12.8 8.533333 21.333333 21.333333 21.333334 12.8-2.133333 21.333333-8.533333 21.333334-21.333334s-6.4-21.333333-21.333334-21.333333z"  fill="#ff9900" /><path d="M384 106.666667H192C145.066667 106.666667 106.666667 145.066667 106.666667 192v170.666667c0 46.933333 38.4 85.333333 85.333333 85.333333h192c46.933333 0 85.333333-38.4 85.333333-85.333333V192c0-46.933333-38.4-85.333333-85.333333-85.333333z m-177.066667 160c-25.6-2.133333-38.4-17.066667-40.533333-42.666667 2.133333-25.6 17.066667-38.4 40.533333-40.533333 25.6 2.133333 38.4 17.066667 42.666667 40.533333-2.133333 25.6-17.066667 40.533333-42.666667 42.666667z m125.866667 115.2c-55.466667-4.266667-83.2-34.133333-87.466667-91.733334 4.266667-57.6 34.133333-89.6 87.466667-93.866666 36.266667 2.133333 53.333333 10.666667 55.466667 27.733333 0 10.666667-6.4 17.066667-17.066667 17.066667-2.133333 0-6.4 0-12.8-2.133334-8.533333-4.266667-19.2-4.266667-27.733333-4.266666-29.866667 2.133333-46.933333 21.333333-49.066667 57.6 2.133333 36.266667 17.066667 53.333333 49.066667 55.466666 8.533333 0 17.066667-2.133333 27.733333-6.4 6.4-2.133333 10.666667-4.266667 12.8-4.266666 8.533333 0 14.933333 6.4 17.066667 17.066666 2.133333 17.066667-17.066667 27.733333-55.466667 27.733334z" fill="#ff9900" /><path d="M832 106.666667h-192c-46.933333 0-85.333333 38.4-85.333333 85.333333v170.666667c0 46.933333 38.4 85.333333 85.333333 85.333333h192c46.933333 0 85.333333-38.4 85.333333-85.333333V192c0-46.933333-38.4-85.333333-85.333333-85.333333z m-100.266667 270.933333c-40.533333 34.133333-102.4 12.8-113.066666-40.533333-2.133333-12.8-2.133333-27.733333 4.266666-38.4 6.4-14.933333 14.933333-29.866667 23.466667-42.666667 12.8-17.066667 25.6-32 38.4-46.933333l2.133333-2.133334 10.666667 10.666667c17.066667 17.066667 29.866667 36.266667 42.666667 55.466667 6.4 12.8 12.8 25.6 14.933333 40.533333 4.266667 25.6-2.133333 46.933333-23.466667 64z m115.2-104.533333c-8.533333 17.066667-27.733333 25.6-44.8 21.333333-19.2-4.266667-34.133333-17.066667-36.266666-36.266667-2.133333-10.666667 0-21.333333 6.4-29.866666 8.533333-19.2 23.466667-36.266667 38.4-51.2 4.266667 4.266667 8.533333 8.533333 12.8 14.933333 10.666667 12.8 19.2 25.6 25.6 40.533333 6.4 12.8 6.4 25.6-2.133334 40.533334z"  fill="#ff9900" /></svg>
