<?xml version="1.0" standalone="no"?><!DOCTYPE svg PUBLIC "-//W3C//DTD SVG 1.1//EN" "http://www.w3.org/Graphics/SVG/1.1/DTD/svg11.dtd"><svg class="icon" width="200px" height="200.00px" viewBox="0 0 1024 1024" version="1.1" xmlns="http://www.w3.org/2000/svg"><path d="M512 1024C229.717333 1024 0 794.282667 0 512S229.717333 0 512 0s512 229.717333 512 512-229.717333 512-512 512z m0-975.189333C256.682667 48.810667 48.810667 256.682667 48.810667 512S256.682667 975.189333 512 975.189333 975.189333 767.317333 975.189333 512 767.317333 48.810667 512 48.810667z"  fill="#00ff00" /><path d="M768 785.066667h-512c-9.557333 0-17.066667-7.509333-17.066667-17.066667s7.509333-17.066667 17.066667-17.066667h512c9.557333 0 17.066667 7.509333 17.066667 17.066667s-7.509333 17.066667-17.066667 17.066667z" fill="#00ff00" /><path d="M493.909333 292.864c10.24 6.485333 22.528 15.018667 35.498667 24.576 41.642667 31.402667 68.266667 61.781333 76.8 87.722667 6.485333 19.114667 9.216 36.864 8.192 52.565333a109.226667 109.226667 0 0 1-6.826667 29.696l-0.341333 1.365333-16.042667 46.08 53.589334-17.066666c3.754667-1.365333 33.792-11.605333 52.565333-35.498667a139.946667 139.946667 0 0 1 25.258667 75.093333c0.341333 15.36 0.341333 29.354667-4.437334 44.714667-5.461333 17.066667-16.725333 34.133333-34.474666 52.565333-0.682667 0.682667-33.792 33.792-82.944 46.421334 9.557333-17.408 16.042667-37.546667 13.994666-59.392-3.754667-45.397333-40.277333-73.045333-66.901333-92.842667-7.168-5.461333-13.994667-10.581333-18.432-15.018667-8.533333-7.850667-17.066667-17.408-23.210667-25.941333-8.533333-11.605333-9.898667-16.725333-9.898666-17.408l-6.144-51.541333-42.666667 37.888c-72.362667 63.829333-100.010667 129.365333-78.165333 183.637333 3.413333 8.192 6.826667 15.701333 10.581333 22.869333-7.850667-5.12-15.36-10.922667-22.186667-17.408a203.434667 203.434667 0 0 1-33.792-40.277333c-13.653333-21.162667-21.162667-45.738667-21.504-70.997333-0.341333-23.893333 5.12-47.104 16.384-66.901334 16.042667-28.330667 33.109333-43.690667 71.338667-77.141333 6.826667-5.802667 14.336-12.629333 22.186667-19.797333 41.642667-39.253333 67.242667-74.752 81.578666-97.962667m-11.946666-36.522667s-20.821333 54.272-91.136 117.418667c-53.930667 48.469333-77.482667 66.218667-98.304 103.082667-25.941333 45.397333-27.306667 107.52 5.461333 159.061333 45.738667 71.68 115.370667 96.597333 159.061333 97.28-18.432-13.994667-42.666667-34.474667-61.44-80.896-24.234667-60.074667 29.696-122.88 71.68-159.744 1.706667 13.312 20.821333 38.570667 40.277334 56.661333 23.893333 22.528 74.069333 46.421333 78.165333 93.866667 3.072 34.474667-20.48 66.56-45.397333 88.746667 3.413333-0.341333 12.288-1.365333 35.498666-3.072 75.776-5.461333 126.976-57.344 129.024-59.392 44.714667-46.762667 46.08-79.530667 45.056-112.64-1.024-43.690667-23.210667-91.818667-61.44-120.832-2.389333 7.168-6.826667 17.066667-10.581333 24.576-11.946667 24.576-44.032 34.816-44.032 34.816 5.461333-16.042667 16.725333-44.714667-0.682667-96.597334-24.576-74.069333-151.210667-142.336-151.210666-142.336z m0 0" fill="#00ff00" /><path d="M465.92 592.554667c-2.048 3.413333-16.725333 32.426667-9.898667 64.512 5.461333 26.282667 24.234667 44.373333 45.056 47.104h2.389334c12.288 0 24.234667-12.970667 25.258666-23.893334 1.024-11.264-17.749333-24.576-29.696-37.205333-24.576-24.917333-27.989333-34.133333-30.037333-39.253333-0.341333-0.341333-2.730667-10.581333-3.072-11.264z m0 0" fill="#00ff00" /></svg>
