<?xml version="1.0" standalone="no"?><!DOCTYPE svg PUBLIC "-//W3C//DTD SVG 1.1//EN" "http://www.w3.org/Graphics/SVG/1.1/DTD/svg11.dtd"><svg t="1629798335478" class="icon" viewBox="0 0 1024 1024" version="1.1" xmlns="http://www.w3.org/2000/svg" p-id="42482" xmlns:xlink="http://www.w3.org/1999/xlink" width="200" height="200"><defs><style type="text/css"></style></defs><path d="M526.910208 12.8c109.568 0 208.768 44.416 280.576 116.224A395.5456 395.5456 0 0 1 923.710208 409.6c0 83.4816-25.7792 160.9472-69.8112 224.8448a398.08 398.08 0 0 1-185.7536 146.0992c-29.3632 11.1616-76.7744 73.5744-140.2624 190.976-53.0688-116.224-93.5168-175.0784-118.4768-182.784-81.92-25.3696-152.4736-76.544-202.1888-144.0256A395.008 395.008 0 0 1 130.110208 409.6c0-109.568 44.416-208.768 116.224-280.576A395.5456 395.5456 0 0 1 526.910208 12.8z" fill="#74C97C" p-id="42483"></path><path d="M339.057408 287.6416V244.2496h340.8384v39.2704a89.0368 89.0368 0 0 1 75.6992 88.064c0 49.408-39.9104 89.4464-89.216 89.4464H368.830208a89.2416 89.2416 0 1 1-29.7728-173.3632zM625.726208 395.9808c15.0016 0 27.136-12.032 27.136-27.0336 0-15.0016-12.032-27.136-27.0336-27.136-14.976 0-27.136 12.032-27.136 27.0336v0.1024c0 14.8992 12.16 27.0336 27.0336 27.0336z m-108.1088 0c14.976 0 27.136-12.032 27.136-27.0336 0-15.0016-12.032-27.136-27.0336-27.136-15.0016 0-27.136 12.032-27.136 27.0336v0.1024c0 14.8992 12.032 27.0336 27.0336 27.0336z m-108.2368 0c15.0016 0 27.136-12.032 27.136-27.0336 0-15.0016-12.032-27.136-27.0336-27.136-15.0016 0-27.136 12.032-27.136 27.0336v0.1024c0 14.8992 12.1344 27.0336 27.0336 27.0336z m219.8272 172.544l22.4 28.16c-2.2272 1.792-5.9136 4.6592-11.3152 8.1408a247.5008 247.5008 0 0 1-29.5424 16.7936c-77.824 37.8112-162.2016 36.864-240.7424-29.2352l22.784-27.776c66.432 55.8592 136.2176 56.704 202.4192 24.3968a216.1408 216.1408 0 0 0 33.9968-20.48z m-53.3248-19.968c-50.4576 24.4992-105.6768 23.8592-156.7744-18.9952l22.784-27.776c38.9632 32.7168 79.5136 33.2544 118.4768 14.2592a140.544 140.544 0 0 0 15.0016-8.576c2.5344-1.6896 4.096-2.816 4.736-3.3792l22.4 28.2112c-5.2736 4.3264-14.3616 10.3424-26.624 16.256z m-70.0928 135.4752c42.8544 0.4096 84.48-10.5728 123.008-29.2608 12.2368-5.888 24.064-12.672 35.3792-20.1728 3.584-2.304 6.656-4.5312 9.2928-6.4256l2.816-2.2272 22.4 28.1856c-2.8416 2.3296-7.808 6.0416-14.8736 10.7776-12.672 8.3456-25.856 15.9488-39.6032 22.5024-43.1872 20.8896-89.9584 33.3568-138.9568 32.8192-63.36-0.7168-124.928-23.3216-182.5536-71.7824l22.784-27.776c51.456 43.0848 105.088 62.72 160.3072 63.36z" fill="#40B14A" p-id="42484"></path><path d="M339.057408 236.4416V193.0496h340.8384v39.2704a89.0368 89.0368 0 0 1 75.6992 88.064c0 49.408-39.9104 89.4464-89.216 89.4464H368.830208a89.2416 89.2416 0 1 1-29.7728-173.3632z m286.6688 108.3392c15.0016 0 27.136-12.032 27.136-27.0336 0-15.0016-12.032-27.136-27.0336-27.136-14.976 0-27.136 12.032-27.136 27.0336v0.1024c0 14.8992 12.16 27.0336 27.0336 27.0336z m-108.1088 0c14.976 0 27.136-12.032 27.136-27.0336 0-15.0016-12.032-27.136-27.0336-27.136-15.0016 0-27.136 12.032-27.136 27.0336v0.1024c0 14.8992 12.032 27.0336 27.0336 27.0336z m-108.2368 0c15.0016 0 27.136-12.032 27.136-27.0336 0-15.0016-12.032-27.136-27.0336-27.136-14.976 0-27.136 12.032-27.136 27.0336v0.1024c0 14.8992 12.16 27.0336 27.0336 27.0336z m219.8272 172.544l22.4 28.16c-2.2272 1.792-5.9136 4.6592-11.3152 8.1408a247.5008 247.5008 0 0 1-29.5424 16.7936c-77.824 37.8112-162.2016 36.864-240.7424-29.2352l22.784-27.776c66.432 55.8592 136.2176 56.704 202.4192 24.3968a216.1408 216.1408 0 0 0 33.9968-20.48z m-53.3248-19.968c-50.4576 24.4992-105.6768 23.8592-156.7744-19.0208l22.784-27.7504c38.9632 32.7168 79.5136 33.2544 118.4768 14.2592a140.544 140.544 0 0 0 15.0016-8.576c2.5344-1.6896 4.096-2.816 4.736-3.3792l22.4 28.2112c-5.2736 4.3264-14.3616 10.3424-26.624 16.256z m-70.0928 135.4752c42.8544 0.4096 84.48-10.5728 123.008-29.2608 12.2368-5.888 24.064-12.672 35.3792-20.1728 3.584-2.304 6.656-4.5312 9.2928-6.4256l2.816-2.2272 22.4 28.1856c-2.8416 2.3296-7.808 6.0416-14.8736 10.7776-12.672 8.3456-25.856 15.9488-39.6032 22.5024-43.1872 20.8896-89.9584 33.3568-138.9568 32.8192-63.36-0.7168-124.928-23.3216-182.5536-71.7824l22.784-27.776c51.456 43.0848 105.088 62.72 160.3072 63.36z" fill="#FFFFFF" p-id="42485"></path></svg>