<?xml version="1.0" standalone="no"?><!DOCTYPE svg PUBLIC "-//W3C//DTD SVG 1.1//EN" "http://www.w3.org/Graphics/SVG/1.1/DTD/svg11.dtd"><svg class="icon" width="200px" height="200.00px" viewBox="0 0 1024 1024" version="1.1" xmlns="http://www.w3.org/2000/svg"><path d="M512 136.533333c8.738133 0 17.408 0.068267 25.941333 0.238934l25.258667 0.682666c8.2944 0.3072 16.452267 0.682667 24.541867 1.1264l23.825066 1.604267 23.108267 2.048c174.2848 17.271467 282.282667 73.386667 286.788267 159.3344L921.6 307.2v68.266667h-68.266667V307.2c0-31.744-45.636267-62.2592-128.477866-81.578667l-17.066667-3.720533c-11.707733-2.389333-24.064-4.539733-37.034667-6.485333l-19.968-2.696534-20.8896-2.3552-21.8112-1.9456c-25.941333-2.048-53.76-3.2768-83.285333-3.549866L512 204.8c-34.338133 0-66.423467 1.262933-96.085333 3.618133l-21.845334 1.9456-20.855466 2.3552-19.968 2.730667c-12.970667 1.911467-25.326933 4.096-37.034667 6.4512l-17.066667 3.720533c-80.0768 18.670933-125.405867 47.8208-128.341333 78.404267L170.666667 307.2v68.266667H102.4V307.2c0-89.156267 108.885333-147.319467 286.9248-164.9664l23.108267-2.048 23.825066-1.604267c8.0896-0.443733 16.247467-0.8192 24.576-1.1264l25.258667-0.682666C494.592 136.6016 503.227733 136.533333 512 136.533333z" fill="#ff4500" /><path d="M512 238.933333c8.0896 0 16.110933 0.068267 24.064 0.238934l23.688533 0.682666c7.850667 0.3072 15.633067 0.682667 23.313067 1.1264l22.869333 1.570134 22.357334 1.979733c3.6864 0.341333 7.338667 0.7168 10.990933 1.1264l21.572267 2.56 10.581333 1.4336 20.6848 3.1744c13.585067 2.218667 26.760533 4.676267 39.458133 7.3728l18.670934 4.1984 17.92 4.539733c5.870933 1.570133 11.605333 3.1744 17.134933 4.846934l16.315733 5.12C875.758933 303.650133 921.6 337.783467 921.6 375.466667c0 37.717333-45.841067 71.850667-119.978667 96.529066l-16.315733 5.154134c-5.563733 1.706667-11.264 3.2768-17.134933 4.846933l-17.92 4.539733-18.670934 4.1984c-12.6976 2.730667-25.873067 5.154133-39.458133 7.3728l-20.6848 3.1744-10.581333 1.4336-21.572267 2.56c-3.652267 0.4096-7.304533 0.785067-10.990933 1.1264l-22.391467 1.979734-1.911467 0.170666C588.014933 492.305067 554.7008 477.866667 512 477.866667c-42.666667 0-76.014933 14.4384-91.989333 30.685866l-1.911467-0.170666-22.391467-1.979734c-3.6864-0.341333-7.338667-0.7168-10.990933-1.1264l-21.572267-2.56a997.239467 997.239467 0 0 1-10.581333-1.4336l-20.6848-3.1744a855.995733 855.995733 0 0 1-39.458133-7.3728l-18.670934-4.1984-17.92-4.539733a614.6048 614.6048 0 0 1-17.134933-4.846933l-16.315733-5.12C148.241067 447.2832 102.4 413.149867 102.4 375.466667c0-37.717333 45.841067-71.850667 119.978667-96.529067l16.315733-5.154133c5.563733-1.706667 11.264-3.2768 17.134933-4.846934l17.92-4.539733 18.670934-4.1984c12.6976-2.730667 25.873067-5.154133 39.458133-7.3728l20.6848-3.1744 10.581333-1.4336 21.572267-2.56c3.652267-0.4096 7.304533-0.785067 10.990933-1.1264l22.391467-1.979733 22.8352-1.570134c7.68-0.443733 15.4624-0.8192 23.313067-1.1264l23.688533-0.682666 11.9808-0.170667L512 238.933333z m0 68.266667c-103.185067 0-199.202133 13.550933-268.049067 36.488533-27.374933 9.1136-48.810667 19.2512-62.737066 29.013334L177.425067 375.466667l3.754666 2.7648c12.424533 8.669867 30.72 17.646933 53.8624 25.941333l8.9088 3.072C312.797867 430.1824 408.814933 443.733333 512 443.733333c103.185067 0 199.202133-13.550933 268.049067-36.488533 27.374933-9.1136 48.810667-19.2512 62.737066-29.013333l3.754667-2.798934-3.754667-2.730666c-12.3904-8.669867-30.685867-17.646933-53.828266-25.941334l-8.9088-3.072C711.202133 320.750933 615.185067 307.2 512 307.2z"  fill="#ff4500" /><path d="M512 409.6c94.242133 0 170.666667 53.486933 170.666667 119.466667S606.242133 648.533333 512 648.533333s-170.666667-53.486933-170.666667-119.466666 76.424533-119.466667 170.666667-119.466667z m0 68.266667c-60.689067 0-102.4 29.184-102.4 51.2s41.710933 51.2 102.4 51.2 102.4-29.184 102.4-51.2-41.710933-51.2-102.4-51.2z" fill="#ff4500" /><path d="M512 323.925333c57.412267 0 98.0992 8.465067 122.0608 25.3952a34.133333 34.133333 0 0 1 14.472533 27.886934V546.133333a34.133333 34.133333 0 0 1-34.133333 34.133334h-102.4c60.689067 0 102.4-29.184 102.4-51.2 0-12.117333-12.629333-26.385067-34.0992-36.795734L580.266667 399.0528l-1.501867-0.443733c-13.141333-3.413333-32.631467-5.870933-58.0608-6.3488L512 392.192c-26.4192 0-47.104 2.048-61.610667 5.188267L443.733333 399.018667v93.252266c-21.504 10.376533-34.133333 24.6784-34.133333 36.795734 0 22.016 41.710933 51.2 102.4 51.2h-102.4a34.133333 34.133333 0 0 1-34.133333-34.133334v-168.96a34.133333 34.133333 0 0 1 14.472533-27.8528c23.9616-16.930133 64.648533-25.3952 122.0608-25.3952z" fill="#ff4500" /><path d="M279.790933 587.4688a34.133333 34.133333 0 0 1 21.538134 39.936l-1.1264 3.822933-11.6736 32.085334a34.133333 34.133333 0 0 1-65.297067-19.5584l1.1264-3.822934 11.6736-32.085333a34.133333 34.133333 0 0 1 43.758933-20.3776zM233.096533 715.776a34.133333 34.133333 0 0 1 21.538134 39.936l-1.1264 3.822933-11.6736 32.085334a34.133333 34.133333 0 0 1-65.297067-19.5584l1.1264-3.822934 11.6736-32.085333a34.133333 34.133333 0 0 1 43.758933-20.3776z" fill="#ff4500" /><path d="M512 682.666667a34.133333 34.133333 0 0 1 33.8944 30.139733L546.133333 716.8v34.133333a34.133333 34.133333 0 0 1-68.027733 3.9936L477.866667 750.933333v-34.133333a34.133333 34.133333 0 0 1 34.133333-34.133333zM512 819.2a34.133333 34.133333 0 0 1 33.8944 30.139733L546.133333 853.333333v34.133334a34.133333 34.133333 0 0 1-68.027733 3.9936L477.866667 887.466667v-34.133334a34.133333 34.133333 0 0 1 34.133333-34.133333z" fill="#ff4500" /><path d="M744.209067 587.4688a34.133333 34.133333 0 0 1 42.154666 16.725333l1.604267 3.6864 11.6736 32.085334a34.133333 34.133333 0 0 1-62.600533 26.965333l-1.570134-3.652267-11.6736-32.085333a34.133333 34.133333 0 0 1 20.411734-43.690667zM790.903467 715.776a34.133333 34.133333 0 0 1 42.1888 16.725333l1.570133 3.6864 11.6736 32.085334a34.133333 34.133333 0 0 1-62.5664 26.965333l-1.604267-3.652267-11.6736-32.085333a34.133333 34.133333 0 0 1 20.411734-43.7248z" fill="#ff4500" /></svg>
