<?xml version="1.0" standalone="no"?><!DOCTYPE svg PUBLIC "-//W3C//DTD SVG 1.1//EN" "http://www.w3.org/Graphics/SVG/1.1/DTD/svg11.dtd"><svg class="icon" width="200px" height="200.00px" viewBox="0 0 1024 1024" version="1.1" xmlns="http://www.w3.org/2000/svg"><path d="M768 853.33V554.67c0-141.16-114.84-256-256-256s-256 114.84-256 256v298.67H128v85.33h768v-85.33H768z m-426.67 0V554.67C341.33 460.56 417.89 384 512 384s170.67 76.56 170.67 170.67v298.67H341.33z" fill="#3366ff" /><path d="M469.88 471.54c-17.67 0-32 14.33-32 32V608c0 17.67 14.33 32 32 32s32-14.33 32-32V503.54c0-17.67-14.33-32-32-32zM479.26 232.18h62.75c0.35 0 0.63-0.28 0.63-0.63V69.04c0-0.35-0.28-0.63-0.63-0.63h-62.75c-0.35 0-0.63 0.28-0.63 0.63v162.52c0 0.34 0.28 0.62 0.63 0.62zM289.46 315.72c0.24 0.24 0.64 0.24 0.88 0l44.37-44.37c0.24-0.24 0.24-0.64 0-0.88L219.8 155.54a0.628 0.628 0 0 0-0.88 0l-44.37 44.37c-0.24 0.24-0.24 0.64 0 0.88l114.91 114.93zM730.92 315.72c0.24 0.24 0.64 0.24 0.88 0L846.72 200.8c0.24-0.24 0.24-0.64 0-0.88l-44.37-44.37a0.628 0.628 0 0 0-0.88 0L686.55 270.46c-0.24 0.24-0.24 0.64 0 0.88l44.37 44.38z" fill="#3366ff" /></svg>
