<?xml version="1.0" standalone="no"?><!DOCTYPE svg PUBLIC "-//W3C//DTD SVG 1.1//EN" "http://www.w3.org/Graphics/SVG/1.1/DTD/svg11.dtd"><svg t="1629870468941" class="icon" viewBox="0 0 1024 1024" version="1.1" xmlns="http://www.w3.org/2000/svg" p-id="47688" xmlns:xlink="http://www.w3.org/1999/xlink" width="200" height="200"><defs><style type="text/css"></style></defs><path d="M516.096 1.365333C271.701333 1.365333 72.362667 204.8 72.362667 453.290667c0 92.842667 23.210667 169.301333 75.093333 251.221333C249.856 875.178667 449.194667 1010.346667 516.096 1010.346667c66.901333 0 266.24-135.168 370.005333-305.834667 50.517333-80.554667 75.093333-158.378667 75.093334-251.221333C961.194667 204.8 761.856 1.365333 516.096 1.365333z m0 816.469334c-150.186667 0-285.354667-90.112-342.698667-229.376-57.344-137.898667-24.576-297.642667 80.554667-404.138667C360.448 77.824 518.826667 46.421333 658.090667 103.765333 797.354667 161.109333 887.466667 296.277333 887.466667 446.464c0 204.8-166.570667 371.370667-371.370667 371.370667z m0 0" fill="#ff4500" p-id="47689"></path><path d="M402.773333 673.109333h12.288v53.248h16.384v-53.248h12.288v-61.44c-13.653333-5.461333-27.306667-12.288-39.594666-19.114666l-1.365334 80.554666z m65.536 0h12.288v53.248h16.384v-53.248h12.288v-47.786666c-13.653333-1.365333-25.941333-2.730667-39.594666-5.461334l-1.365334 53.248z m66.901334 0h12.288v53.248h16.384v-53.248h12.288v-53.248c-12.288 2.730667-25.941333 5.461333-39.594667 5.461334l-1.365333 47.786666z m66.901333 0h12.288v53.248h16.384v-53.248h10.922667v-81.92c-12.288 8.192-25.941333 15.018667-39.594667 19.114667v62.805333z" fill="#ff4500" p-id="47690"></path><path d="M731.818667 360.448l-23.210667 4.096c-1.365333-4.096-1.365333-6.826667-2.730667-10.922667l23.210667-5.461333c-5.461333-19.114667-12.288-38.229333-23.210667-55.978667l-20.48 12.288c-1.365333-2.730667-4.096-5.461333-5.461333-9.557333l20.48-13.653333c-10.922667-16.384-24.576-31.402667-39.594667-45.056l-15.018666 17.749333c-2.730667-2.730667-5.461333-4.096-8.192-6.826667l13.653333-19.114666c-16.384-12.288-34.133333-21.845333-51.882667-28.672l-8.192 21.845333-9.557333-4.096 6.826667-23.210667c-19.114667-6.826667-38.229333-9.557333-58.709334-10.922666l-1.365333 23.210666h-10.922667v-23.210666c-20.48 0-39.594667 4.096-58.709333 9.557333l6.826667 23.210667-9.557334 2.730666-8.192-21.845333c-19.114667 6.826667-36.864 16.384-53.248 28.672l13.653334 19.114667c-2.730667 2.730667-5.461333 4.096-8.192 6.826666l-16.384-17.749333c-15.018667 12.288-28.672 27.306667-40.96 43.690667l19.114666 13.653333c-1.365333 2.730667-4.096 5.461333-5.461333 9.557333l-20.48-12.288c-10.922667 17.749333-17.749333 35.498667-23.210667 54.613334l23.210667 6.826666c-1.365333 4.096-1.365333 6.826667-2.730667 10.922667l-23.210666-5.461333C286.72 472.405333 361.813333 587.093333 477.866667 611.669333c116.053333 24.576 230.741333-49.152 255.317333-165.205333 5.461333-28.672 5.461333-57.344-1.365333-86.016z m-173.397334 55.978667c0 20.48-16.384 36.864-36.864 36.864s-36.864-16.384-36.864-36.864c0-19.114667 15.018667-35.498667 35.498667-36.864l70.997333-95.573334-34.133333 118.784c1.365333 5.461333 1.365333 9.557333 1.365333 13.653334z" fill="#ff4500" p-id="47691"></path></svg>